<svg width="29" height="29" viewBox="0 0 29 29" fill="none" xmlns="http://www.w3.org/2000/svg">
<path d="M10.1923 18.6666C9.74622 18.6666 9.38461 19.0455 9.38461 19.5128C9.38461 19.9801 9.74622 20.3589 10.1923 20.3589H18.8077C19.2537 20.3589 19.6154 19.9801 19.6154 19.5128C19.6154 19.0455 19.2537 18.6666 18.8077 18.6666H10.1923Z" fill="white"/>
<path fill-rule="evenodd" clip-rule="evenodd" d="M7.23586 4C6.8469 3.99998 6.50198 3.99996 6.21568 4.02749C5.90821 4.05704 5.59605 4.12327 5.29579 4.3018C4.8015 4.59571 4.42984 5.07052 4.21513 5.621C4.09046 5.94065 4.0431 6.27191 4.02115 6.61994C3.99999 6.9555 3.99999 7.3657 4 7.85759V15.0056C4 16.0524 4 17.4137 4.03328 18.6212C4.04994 19.2257 4.07518 19.8017 4.11402 20.2861C4.15078 20.7447 4.20491 21.2009 4.30307 21.5174C4.9156 23.4924 6.3936 25.0408 8.27877 25.6825C9.21303 26.0005 10.3343 26.0003 12.1719 26H16.8281C18.6656 26.0003 19.7869 26.0005 20.7212 25.6825C22.6064 25.0408 24.0844 23.4924 24.6969 21.5174C25.0004 20.5387 25.0003 19.364 25 17.439V17.0738C25.0003 15.1488 25.0004 13.9741 24.6969 12.9953C24.0844 11.0204 22.6064 9.47202 20.7212 8.83032C20.4686 8.74433 20.1034 8.69639 19.7454 8.66253C19.361 8.62617 18.8955 8.59913 18.3932 8.57873C17.3872 8.53788 16.1998 8.52241 15.1507 8.51649C14.6442 8.51363 14.0942 8.06111 13.793 7.28927L13.7829 7.26336C13.3373 6.12078 12.5786 5.16815 11.6048 4.5891C11.0629 4.26692 10.4734 4.12887 9.79238 4.0634C9.13277 3.99998 8.31896 3.99999 7.30801 4L7.23586 4ZM6.09316 5.77357C6.11502 5.76058 6.1727 5.73103 6.3633 5.71271C6.5669 5.69314 6.83677 5.69231 7.26923 5.69231C8.328 5.69231 9.06761 5.69314 9.64476 5.74862C10.2089 5.80286 10.544 5.90422 10.8074 6.06087C11.4322 6.43233 11.9634 7.0723 12.2876 7.90347L12.2977 7.92954C12.7272 9.03034 13.7174 10.2007 15.142 10.2088C16.1864 10.2147 17.3522 10.23 18.3306 10.2698C18.8205 10.2897 19.2551 10.3153 19.6001 10.348C19.9716 10.3831 20.1651 10.4204 20.222 10.4398C21.6154 10.9141 22.7078 12.0586 23.1606 13.5183C23.3746 14.2084 23.3846 15.0906 23.3846 17.2564C23.3846 19.4222 23.3746 20.3044 23.1606 20.9945C22.7078 22.4542 21.6154 23.5987 20.222 24.073C19.5632 24.2972 18.7211 24.3077 16.6538 24.3077H12.3461C10.2788 24.3077 9.43672 24.2972 8.77795 24.073C7.38457 23.5987 6.29213 22.4542 5.83939 20.9945C5.80578 20.8861 5.76109 20.6104 5.72373 20.1445C5.68845 19.7044 5.66427 19.1632 5.64799 18.5724C5.61544 17.3915 5.61538 16.0524 5.61538 15V7.8854C5.61538 7.35858 5.61579 7.0046 5.63302 6.7315C5.64985 6.46456 5.68005 6.33919 5.7105 6.26112C5.80373 6.02208 5.94801 5.85988 6.09316 5.77357Z" fill="white"/>
</svg>
